<svg xmlns="http://www.w3.org/2000/svg" viewBox="0 0 1200 1500" width="1200" height="1500">
<defs>
<linearGradient id="bg" x1="0" y1="0" x2="0.55" y2="1">
<stop offset="0" stop-color="#1D2B23"/><stop offset="0.55" stop-color="#17231B"/><stop offset="1" stop-color="#1A1A1A"/>
</linearGradient>
<radialGradient id="lite" cx="0.718" cy="0.451" r="0.62">
<stop offset="0" stop-color="#EFECE5" stop-opacity="0.66"/>
<stop offset="0.35" stop-color="#CDC4B3" stop-opacity="0.20"/>
<stop offset="1" stop-color="#1A1A1A" stop-opacity="0"/></radialGradient>
<clipPath id="cp"><rect width="1200" height="1500"/></clipPath>
<filter id="gr"><feTurbulence type="fractalNoise" baseFrequency="0.95" numOctaves="4"/>
<feColorMatrix type="saturate" values="0"/></filter>
<filter id="soft"><feGaussianBlur stdDeviation="42"/></filter>
</defs>
<g clip-path="url(#cp)">
<rect width="1200" height="1500" fill="url(#bg)"/>
<g transform="rotate(15 600 750)"><rect x="0" y="51" width="1200" height="42" fill="#EFECE5" opacity="0.073"/><rect x="0" y="199" width="1200" height="145" fill="#EFECE5" opacity="0.125"/><rect x="0" y="454" width="1200" height="69" fill="#EFECE5" opacity="0.080"/><rect x="0" y="679" width="1200" height="37" fill="#EFECE5" opacity="0.110"/><rect x="0" y="786" width="1200" height="120" fill="#EFECE5" opacity="0.112"/><rect x="0" y="1039" width="1200" height="108" fill="#EFECE5" opacity="0.083"/><rect x="0" y="1299" width="1200" height="50" fill="#EFECE5" opacity="0.061"/><rect x="0" y="1486" width="1200" height="71" fill="#EFECE5" opacity="0.103"/></g>
<ellipse cx="862" cy="676" rx="552" ry="600" fill="url(#lite)" filter="url(#soft)"/>
<rect width="1200" height="1500" filter="url(#gr)" opacity="0.13"/>
<rect x="0" y="1161" width="1200" height="2" fill="#CDC4B3" opacity="0.5"/>
<rect x="129" y="0" width="1" height="1500" fill="#EFECE5" opacity="0.14"/>
</g></svg>